<?xml version="1.0" encoding="UTF-8"?><svg id="Layer_1" xmlns="http://www.w3.org/2000/svg" viewBox="0 0 32 32"><defs><style>.cls-1{fill:none;stroke:#000;stroke-miterlimit:10;}.cls-2{stroke-width:0px;}</style></defs><circle class="cls-1" cx="16" cy="16" r="13.75"/><path class="cls-2" d="m23.79,13.43c-.03-.14-.13-.18-.26-.17-.04,0-.07,0-.11,0-.55.12-1.11.16-1.67.23-.8.1-1.6.2-2.4.3-.13.02-.17-.01-.17-.15-.02-.83-.04-1.67-.07-2.5-.06-1.45-.1-2.91-.31-4.35-.13-.91-.36-1.78-.88-2.56-.19-.28-.48-.4-.8-.29-.29.1-.51.29-.71.52-.9,1.06-1.59,2.24-2.19,3.48-1.09,2.28-2.02,4.62-2.74,7.04-.13.44-.36.71-.79.88-.74.29-1.48.6-2.1,1.12-.15.12-.27.26-.34.44-.06.16-.11.32.03.47.14.15.32.17.5.12.09-.02.16-.07.18-.17.02-.1-.04-.17-.13-.21-.12-.05-.11-.11-.02-.19.63-.49,1.33-.86,2.09-1.1.15-.05.16-.03.12.12-.26,1-.54,2-.77,3.01-.26,1.15-.51,2.31-.55,3.53-.05.19.01.4.09.61.03.08.08.14.17.14.09,0,.16-.05.19-.13.03-.08.04-.17.04-.26-.02-.88.16-1.73.32-2.59.27-1.48.67-2.93,1.06-4.38.07-.28.24-.43.51-.52,2.07-.68,4.18-1.15,6.34-1.45.2-.03.2-.03.21.19.02,1.33.04,2.67.13,4,.06.92.11,1.84.2,2.76.09,1.01.21,2.02.33,3.03.1.78.18,1.55.28,2.33.05.37.15.73,0,1.09-.01.04,0,.07.02.1.06.13.24.21.39.18.15-.04.2-.15.2-.29,0-.28-.02-.56-.05-.84-.1-1.04-.21-2.07-.36-3.1-.18-1.26-.3-2.54-.39-3.81-.09-1.21-.14-2.43-.17-3.64-.02-.66-.02-1.31-.03-1.97,0-.06-.02-.13.09-.15.2-.02.39-.07.59-.09,1.09-.13,2.17-.25,3.26-.39.17-.02.34-.04.5-.1.12-.05.2-.14.17-.28Zm-5.37.49c-1.37.21-2.73.46-4.08.78-.76.18-1.52.4-2.27.64-.05.02-.1.03-.15.05-.02-.1.02-.17.04-.25.75-2.44,1.64-4.83,2.79-7.12.51-1.01,1.02-2,1.73-2.89.19-.24.41-.45.64-.64.16-.13.26-.12.36.05.18.28.34.56.43.88.36,1.26.48,2.56.56,3.86.08,1.44.11,2.87.13,4.31,0,.04,0,.07,0,.11.02.15-.05.2-.2.22Z"/></svg>